# xmcd
#
# Track frame offsets:
#	150
#	10076
#	24927
#	41840
#	52313
#	65095
#	81875
#	94918
#	110378
#	118963
#	131142
#	144387
#	155964
#	166437
#	179212
#	187731
#	199848
#	214267
#	226161
#	236857
#	246330
#	257398
#	269988
#	281018
#	293124
#	306958
#
# Disc length: 4285 seconds
#
# Revision: 1
# Processed by: cddbd v1.5.2PL0 Copyright (c) Steve Scherf et al.
# Submitted via: audiograbber 1.83.01
#
DISCID=9c10bb1a
DTITLE=jose alfredo jimenez - la historia de jose alfredo
DYEAR=1900
DGENRE=ranchero
TTITLE0=el rey
TTITLE1=amarga navidad
TTITLE2=un mundo raro
TTITLE3=amaneci en tus brazos
TTITLE4=arrullo de dios
TTITLE5=caminos de guanajuato
TTITLE6=cuando el destino
TTITLE7=cuando sale la luina
TTITLE8=declarate inocente
TTITLE9=el caballo blanco
TTITLE10=el jinete
TTITLE11=ella
TTITLE12=en el ultimo trago
TTITLE13=gracias
TTITLE14=la enorme distancia
TTITLE15=la mano de dios
TTITLE16=la maldicion ranchera
TTITLE17=media vuelta
TTITLE18=no me amenaces
TTITLE19=palabra de hombre
TTITLE20=para morir iguales
TTITLE21=que te vaya bonito
TTITLE22=si nos dejan
TTITLE23=te solte la rienda
TTITLE24=tu recuerdo y yo
TTITLE25=tu y las nubes
EXTD=
EXTT0=
EXTT1=
EXTT2=
EXTT3=
EXTT4=
EXTT5=
EXTT6=
EXTT7=
EXTT8=
EXTT9=
EXTT10=
EXTT11=
EXTT12=
EXTT13=
EXTT14=
EXTT15=
EXTT16=
EXTT17=
EXTT18=
EXTT19=
EXTT20=
EXTT21=
EXTT22=
EXTT23=
EXTT24=
EXTT25=
PLAYORDER=
